# xmcd
#
# Track frame offsets: 
#        150
#        10111
#        21632
#        31112
#        41831
#        53499
#        65150
#        73247
#        82858
#        92711
#        104133
#        115320
#        129205
#        138009
#        146956
#
# Disc length: 2077 seconds
#
# Revision: 1
# Processed by: cddbd v1.5.2PL0 Copyright (c) Steve Scherf et al.
# Submitted via: ExactAudioCopy v0.95b4
#
DISCID=d4081b0f
DTITLE=The Hometown Gamblers - Takin' Care Of Business
DYEAR=2005
DGENRE=Rockabilly
TTITLE0=Searchin'
TTITLE1=Cheatin' Gal
TTITLE2=Going To The Recordshop
TTITLE3=Drivin' Around
TTITLE4=Selfish Woman
TTITLE5=Hepcat
TTITLE6=Take Care Sweet Baby
TTITLE7=I'm Wrong
TTITLE8=There's Gonna Be Misery
TTITLE9=My Train Is Coming In
TTITLE10=Jailbird
TTITLE11=Baby, What You Think About That
TTITLE12=Caballeros
TTITLE13=You Took My Heart Away
TTITLE14=Miss Mary-Ann
EXTD=
EXTT0=
EXTT1=
EXTT2=
EXTT3=
EXTT4=
EXTT5=
EXTT6=
EXTT7=
EXTT8=
EXTT9=
EXTT10=
EXTT11=
EXTT12=
EXTT13=
EXTT14=
PLAYORDER=
